<svg width="18" height="19" viewBox="0 0 18 19" fill="none" xmlns="http://www.w3.org/2000/svg">
<path d="M9.90785 0.501086C10.5517 0.498615 11.1956 0.505086 11.8393 0.520497L12.0105 0.526674C12.2081 0.533733 12.4031 0.542556 12.6387 0.553144C13.5776 0.597262 14.2181 0.745498 14.7802 0.963439C15.3626 1.18756 15.8531 1.49109 16.3437 1.98167C16.7923 2.4225 17.1395 2.95574 17.3611 3.54432C17.579 4.10638 17.7273 4.74785 17.7714 5.68667C17.782 5.92138 17.7908 6.11726 17.7979 6.31491L17.8031 6.48608C17.8188 7.12949 17.8256 7.77308 17.8234 8.41667L17.8243 9.07491V10.2308C17.8265 10.8747 17.8197 11.5186 17.804 12.1623L17.7987 12.3334C17.7917 12.5311 17.7829 12.7261 17.7723 12.9617C17.7281 13.9005 17.5781 14.5411 17.3611 15.1031C17.1402 15.6923 16.7929 16.226 16.3437 16.6667C15.9025 17.1152 15.369 17.4623 14.7802 17.684C14.2181 17.902 13.5776 18.0502 12.6387 18.0943C12.4031 18.1049 12.2081 18.1137 12.0105 18.1208L11.8393 18.1261C11.1956 18.1418 10.5517 18.1485 9.90785 18.1464L9.24962 18.1473H8.09462C7.45073 18.1494 6.80685 18.1427 6.16315 18.127L5.99197 18.1217C5.78251 18.1141 5.57309 18.1053 5.36374 18.0952C4.42491 18.0511 3.78432 17.9011 3.22138 17.684C2.63258 17.4629 2.09924 17.1156 1.65874 16.6667C1.20966 16.2257 0.862171 15.6922 0.640502 15.1031C0.422561 14.5411 0.274326 13.9005 0.230208 12.9617C0.220381 12.7523 0.211558 12.5429 0.203737 12.3334L0.199326 12.1623C0.183058 11.5186 0.175705 10.8747 0.177267 10.2308V8.41667C0.174804 7.77309 0.181276 7.12949 0.196679 6.48608L0.202855 6.31491C0.209914 6.11726 0.218738 5.92138 0.229326 5.68667C0.273443 4.74697 0.421679 4.10726 0.63962 3.54432C0.861419 2.95546 1.20959 2.42236 1.65962 1.98256C2.09982 1.53322 2.63282 1.18541 3.22138 0.963439C3.78432 0.745498 4.42403 0.597262 5.36374 0.553144L5.99197 0.526674L6.16315 0.522262C6.80655 0.506003 7.45014 0.498649 8.09374 0.500203L9.90785 0.501086ZM9.00079 4.91285C8.41624 4.90458 7.83587 5.01258 7.29342 5.23056C6.75097 5.44854 6.25725 5.77215 5.84095 6.1826C5.42466 6.59305 5.09409 7.08215 4.86846 7.62146C4.64283 8.16078 4.52664 8.73956 4.52664 9.32417C4.52664 9.90878 4.64283 10.4876 4.86846 11.0269C5.09409 11.5662 5.42466 12.0553 5.84095 12.4657C6.25725 12.8762 6.75097 13.1998 7.29342 13.4178C7.83587 13.6358 8.41624 13.7438 9.00079 13.7355C10.1709 13.7355 11.293 13.2707 12.1204 12.4433C12.9477 11.616 13.4126 10.4938 13.4126 9.32373C13.4126 8.15366 12.9477 7.03151 12.1204 6.20414C11.293 5.37678 10.1709 4.91285 9.00079 4.91285ZM9.00079 6.67756C9.35242 6.67108 9.70181 6.73473 10.0286 6.8648C10.3553 6.99486 10.6529 7.18874 10.9038 7.43509C11.1548 7.68145 11.3542 7.97535 11.4903 8.29962C11.6264 8.62389 11.6966 8.97204 11.6966 9.32372C11.6967 9.67541 11.6267 10.0236 11.4906 10.3479C11.3546 10.6722 11.1554 10.9662 10.9045 11.2126C10.6536 11.4591 10.3561 11.653 10.0294 11.7832C9.70267 11.9134 9.3533 11.9772 9.00168 11.9708C8.29963 11.9708 7.62634 11.6919 7.12992 11.1955C6.6335 10.6991 6.35462 10.0258 6.35462 9.32373C6.35462 8.62169 6.6335 7.9484 7.12992 7.45198C7.62634 6.95556 8.29963 6.67667 9.00168 6.67667L9.00079 6.67756ZM13.6331 3.58932C13.3485 3.60071 13.0793 3.72181 12.8819 3.92724C12.6845 4.13267 12.5743 4.4065 12.5743 4.69138C12.5743 4.97626 12.6845 5.25009 12.8819 5.45552C13.0793 5.66095 13.3485 5.78204 13.6331 5.79344C13.9257 5.79344 14.2062 5.67724 14.413 5.47039C14.6199 5.26355 14.7361 4.98302 14.7361 4.6905C14.7361 4.39798 14.6199 4.11744 14.413 3.9106C14.2062 3.70376 13.9257 3.58756 13.6331 3.58756V3.58932Z" fill-opacity="0.8"/>
</svg>