<svg width="18" height="19" viewBox="0 0 18 14" fill="none" xmlns="http://www.w3.org/2000/svg">
<path d="M17.2728 3.34515V11.4356C17.2729 12.0897 17.023 12.7191 16.5742 13.195C16.1255 13.6709 15.5119 13.9573 14.8589 13.9957L14.7085 14H2.74158C2.0875 14 1.45812 13.7501 0.982225 13.3014C0.50633 12.8527 0.219893 12.239 0.18152 11.5861L0.177246 11.4356V3.34515L8.25064 8.7277L8.34979 8.78411C8.46664 8.84121 8.59498 8.87089 8.72504 8.87089C8.85509 8.87089 8.98343 8.84121 9.10029 8.78411L9.19944 8.7277L17.2728 3.34515Z" fill-opacity="0.8"/>
<path d="M14.7085 0.323486C15.6317 0.323486 16.4411 0.810711 16.8925 1.54326L8.72503 6.9882L0.557617 1.54326C0.771936 1.19516 1.06639 0.90337 1.41642 0.692223C1.76645 0.481077 2.16189 0.3567 2.56977 0.32947L2.74158 0.323486H14.7085Z" fill-opacity="0.8"/>
</svg>
